#!OML:ASF F:\VICON\USERDATA\INSTALL\Justin_Nancy\Justin_Nancy.ASF
:FULLY-SPECIFIED
:DEGREES
211
root 0.70975 17.0687 16.7099 0.154427 0.629899 6.85011
lowerback 6.94283 -0.962906 -7.57131
upperback 0.266719 -1.8477 0.930725
thorax -3.35322 -0.794551 5.40981
lowerneck -18.3014 -2.80595 -9.58902
upperneck 21.6146 -2.28636 4.75392
head 10.0902 -1.2942 2.95802
rclavicle -1.88845e-014 2.38542e-015
rhumerus -37.5105 -21.8807 -73.1505
rradius 25.9636
rwrist 11.349
rhand -14.6752 11.516
rfingers 7.12502
rthumb 11.478 -18.1497
lclavicle -1.88845e-014 2.38542e-015
lhumerus -26.7977 2.92705 86.1569
lradius 26.225
lwrist -8.62881
lhand -14.7411 23.551
lfingers 7.12502
lthumb 11.4144 53.2203
rfemur -34.9664 -5.49111 14.4644
rtibia 50.0118
rfoot -8.93365 -7.50765
rtoes -9.80678
lfemur -2.45199 -2.44151 -32.7055
ltibia 27.0607
lfoot -20.1118 0.98838
ltoes 3.93582
212
root 0.696252 17.0528 16.9404 0.456888 0.833039 6.94654
lowerback 6.78751 -1.05032 -7.75765
upperback 0.232254 -1.96469 0.996974
thorax -3.27641 -0.851742 5.59077
lowerneck -18.4566 -2.78638 -9.68363
upperneck 21.5062 -2.22418 4.80267
head 10.0772 -1.26393 2.99804
rclavicle -3.77691e-014 -1.35174e-014
rhumerus -38.1438 -22.2654 -72.6227
rradius 25.4602
rwrist 12.0894
rhand -14.6645 11.9501
rfingers 7.12502
rthumb 11.4883 -17.7151
lclavicle -3.77691e-014 -1.35174e-014
lhumerus -26.2778 2.1142 86.2718
lradius 26.7826
lwrist -7.61507
lhand -15.8483 23.0859
lfingers 7.12502
lthumb 10.3465 52.8113
rfemur -35.2542 -5.35869 14.4193
rtibia 46.7148
rfoot -8.31509 -7.84817
rtoes -9.15361
lfemur -1.45136 -2.00824 -32.6674
ltibia 26.1268
lfoot -20.3951 0.483594
ltoes 3.6073
213
root 0.689654 17.0444 17.1616 0.764928 1.03791 6.96896
lowerback 6.72071 -1.14368 -7.75943
upperback 0.293657 -2.07936 1.04835
thorax -3.15497 -0.915706 5.65173
lowerneck -18.8111 -2.77903 -9.55039
upperneck 21.2812 -2.16084 4.6009
head 10.054 -1.23943 2.9083
rclavicle -2.36554e-014 -3.97569e-015
rhumerus -38.5334 -22.7401 -72.1295
rradius 24.7323
rwrist 12.6738
rhand -14.6251 13.0931
rfingers 7.12502
rthumb 11.5263 -16.5699
lclavicle -2.36554e-014 -3.97569e-015
lhumerus -25.3998 1.68146 86.2073
lradius 27.4262
lwrist -7.2363
lhand -15.4656 24.1116
lfingers 7.12502
lthumb 10.7157 53.8184
rfemur -35.5872 -5.13365 14.3566
rtibia 43.2836
rfoot -7.39651 -7.90779
rtoes -11.0211
lfemur -0.434387 -1.64872 -32.576
ltibia 25.1565
lfoot -20.5474 0.178955
ltoes 3.09872
214
root 0.677524 17.0322 17.3897 0.993998 1.1692 7.19663
lowerback 6.59631 -1.16231 -7.96561
upperback 0.367277 -2.10792 0.998846
thorax -2.99832 -0.936559 5.71242
lowerneck -18.6969 -2.81312 -9.37683
upperneck 20.7104 -2.2248 4.44925
head 9.83033 -1.26309 2.80776
rclavicle 1.75924e-014 -7.95139e-015
rhumerus -38.9704 -23.1345 -71.7548
rradius 24.2034
rwrist 13.0626
rhand -14.4841 13.3449
rfingers 7.12502
rthumb 11.6623 -16.3105
lclavicle 1.75924e-014 -7.95139e-015
lhumerus -24.5973 1.57192 85.9785
lradius 28.2169
lwrist -7.71355
lhand -13.9669 25.6414
lfingers 7.12502
lthumb 12.161 55.268
rfemur -35.7161 -4.58491 13.9598
rtibia 39.7215
rfoot -6.18035 -7.97489
rtoes -15.256
lfemur 0.708776 -1.23801 -32.6952
ltibia 24.1389
lfoot -20.6704 -0.0523478
ltoes 2.89268
215
root 0.661117 17.0151 17.6242 1.23115 1.33476 7.44929
lowerback 6.39284 -1.23134 -8.25786
upperback 0.359819 -2.20489 0.95784
thorax -2.86769 -0.986929 5.83475
lowerneck -18.3998 -2.85136 -9.53171
upperneck 20.3041 -2.31158 4.67721
head 9.6428 -1.285 2.89691
rclavicle 1.68967e-014 -1.11319e-014
rhumerus -39.5334 -23.1934 -71.521
rradius 23.8645
rwrist 13.3872
rhand -14.4139 13.0937
rfingers 7.12502
rthumb 11.73 -16.5579
lclavicle 1.68967e-014 -1.11319e-014
lhumerus -24.0688 1.27972 85.7465
lradius 28.9567
lwrist -7.86614
lhand -13.2582 25.8735
lfingers 7.12502
lthumb 12.8443 55.4583
rfemur -35.7311 -3.95025 13.4751
rtibia 36.0799
rfoot -4.86433 -8.24224
rtoes -18.375
lfemur 1.89643 -0.730788 -32.8012
ltibia 23.0539
lfoot -20.6879 -0.515569
ltoes 3.0043
216
root 0.644872 16.9971 17.8594 1.48682 1.58454 7.63964
lowerback 6.22646 -1.35237 -8.51277
upperback 0.301568 -2.37188 0.943431
thorax -2.79907 -1.06823 5.97097
lowerneck -18.3095 -2.83742 -9.60974
upperneck 20.1957 -2.31685 4.84366
head 9.59089 -1.27363 2.96664
rclavicle -3.8763e-014 -2.3059e-014
rhumerus -40.2269 -23.2722 -71.216
rradius 23.6647
rwrist 13.7462
rhand -14.4624 12.8838
rfingers 7.12502
rthumb 11.6832 -16.7705
lclavicle -3.8763e-014 -2.3059e-014
lhumerus -23.6831 0.740785 85.6145
lradius 29.3765
lwrist -7.04802
lhand -15.2874 23.6458
lfingers 7.12502
lthumb 10.8875 53.3436
rfemur -35.6315 -3.32764 12.9889
rtibia 32.4165
rfoot -3.50812 -8.64662
rtoes -20.6001
lfemur 3.07573 -0.251812 -32.8458
ltibia 21.9544
lfoot -20.6864 -0.988704
ltoes 2.43996
217
root 0.62693 16.9745 18.0988 1.81833 1.77025 7.82059
lowerback 5.8761 -1.46605 -8.79169
upperback 0.33432 -2.50709 0.963749
thorax -2.53306 -1.14617 6.14423
lowerneck -18.6259 -2.75768 -9.50794
upperneck 20.2284 -2.17974 4.74742
head 9.64694 -1.21012 2.93467
rclavicle 1.18277e-014 2.22639e-014
rhumerus -40.716 -23.9278 -70.6429
rradius 23.3245
rwrist 14.6134
rhand -14.2144 12.5744
rfingers 7.12502
rthumb 11.9224 -17.0661
lclavicle 1.18277e-014 2.22639e-014
lhumerus -23.0197 0.36778 85.4937
lradius 29.8436
lwrist -6.59142
lhand -16.3482 23.1869
lfingers 7.12502
lthumb 9.86424 52.9358
rfemur -35.5038 -2.39152 12.3795
rtibia 28.8221
rfoot -2.90465 -9.64198
rtoes -19.8681
lfemur 4.16444 0.227446 -32.8705
ltibia 20.8166
lfoot -20.5892 -1.29725
ltoes 1.04562
